<svg width="24" height="28" viewBox="0 0 24 28" fill="none" xmlns="http://www.w3.org/2000/svg">
<path d="M9.04845 24.1191C9.74833 23.971 14.013 23.971 14.7129 24.1191C15.3112 24.2573 15.9582 24.5802 15.9582 25.2852C15.9234 25.9563 15.5296 26.5514 14.9856 26.9293C14.2801 27.4792 13.4523 27.8274 12.5868 27.9529C12.1082 28.015 11.6379 28.0164 11.1759 27.9529C10.3091 27.8274 9.48118 27.4792 8.77713 26.9278C8.2317 26.5514 7.83793 25.9563 7.80314 25.2852C7.80314 24.5802 8.45015 24.2573 9.04845 24.1191ZM11.9633 0C14.8755 0 17.8503 1.38183 19.6174 3.67453C20.764 5.15083 21.2899 6.62572 21.2899 8.91842V9.51486C21.2899 11.2732 21.7546 12.3095 22.7773 13.5038C23.5523 14.3837 23.8 15.5131 23.8 16.7384C23.8 17.9623 23.3979 19.1242 22.5923 20.0675C21.5376 21.1983 20.0502 21.9203 18.5321 22.0458C16.3323 22.2333 14.1311 22.3912 11.9007 22.3912C9.66888 22.3912 7.46907 22.2968 5.26925 22.0458C3.74984 21.9203 2.26243 21.1983 1.20913 20.0675C0.403508 19.1242 0 17.9623 0 16.7384C0 15.5131 0.249062 14.3837 1.02268 13.5038C2.07737 12.3095 2.51149 11.2732 2.51149 9.51486V8.91842C2.51149 6.56368 3.09866 5.02393 4.30779 3.51661C6.10549 1.31838 8.98709 0 11.8381 0H11.9633Z" fill="#2F2D51"/>
</svg>
