<svg width="25" height="23" viewBox="0 0 25 23" fill="none" xmlns="http://www.w3.org/2000/svg">
<path d="M20.7014 13.7762C23.0764 13.7762 25 15.6676 25 18.0013C25 20.3335 23.0764 22.225 20.7014 22.225C18.3278 22.225 16.4028 20.3335 16.4028 18.0013C16.4028 15.6676 18.3278 13.7762 20.7014 13.7762ZM10.1041 16.1995C11.1444 16.1995 11.9888 17.0292 11.9888 18.0514C11.9888 19.0721 11.1444 19.9032 10.1041 19.9032H1.88471C0.84444 19.9032 0 19.0721 0 18.0514C0 17.0292 0.84444 16.1995 1.88471 16.1995H10.1041ZM4.29859 0C6.67357 0 8.59717 1.89147 8.59717 4.22373C8.59717 6.55736 6.67357 8.44882 4.29859 8.44882C1.92499 8.44882 0 6.55736 0 4.22373C0 1.89147 1.92499 0 4.29859 0ZM23.1167 2.3732C24.1556 2.3732 25 3.20294 25 4.22373C25 5.24588 24.1556 6.07562 23.1167 6.07562H14.8973C13.857 6.07562 13.0126 5.24588 13.0126 4.22373C13.0126 3.20294 13.857 2.3732 14.8973 2.3732H23.1167Z" fill="#2F2D51"/>
</svg>
