<svg width="29" height="30" viewBox="0 0 29 30" fill="none" xmlns="http://www.w3.org/2000/svg">
<path d="M9.95217 28.16V23.5734C9.95217 22.4026 10.9083 21.4534 12.0877 21.4534H16.3989C16.9653 21.4534 17.5085 21.6768 17.9089 22.0744C18.3094 22.4719 18.5344 23.0112 18.5344 23.5734V28.16C18.5308 28.6468 18.7231 29.1148 19.0686 29.4603C19.414 29.8057 19.8841 30 20.3744 30H23.3157C24.6895 30.0035 26.0081 29.4642 26.9808 28.5012C27.9534 27.5381 28.5 26.2305 28.5 24.8667V11.8003C28.5 10.6987 28.0081 9.65376 27.1569 8.947L17.151 1.0138C15.4105 -0.377157 12.9167 -0.332247 11.2281 1.12047L1.45052 8.947C0.559111 9.63292 0.0263284 10.6809 0 11.8003V24.8534C0 27.6958 2.32107 30 5.18426 30H8.05844C9.07684 30 9.9045 29.1843 9.91187 28.1733L9.95217 28.16Z" fill="#2F2D51"/>
</svg>
