<svg width="35" height="40" viewBox="0 0 35 40" fill="none" xmlns="http://www.w3.org/2000/svg">
<path d="M34.0625 37.5H32.5V1.875C32.5 0.839453 31.6605 0 30.625 0H4.375C3.33945 0 2.5 0.839453 2.5 1.875V37.5H0.9375C0.419766 37.5 0 37.9198 0 38.4375V40H35V38.4375C35 37.9198 34.5802 37.5 34.0625 37.5ZM10 5.9375C10 5.41977 10.4198 5 10.9375 5H14.0625C14.5802 5 15 5.41977 15 5.9375V9.0625C15 9.58023 14.5802 10 14.0625 10H10.9375C10.4198 10 10 9.58023 10 9.0625V5.9375ZM10 13.4375C10 12.9198 10.4198 12.5 10.9375 12.5H14.0625C14.5802 12.5 15 12.9198 15 13.4375V16.5625C15 17.0802 14.5802 17.5 14.0625 17.5H10.9375C10.4198 17.5 10 17.0802 10 16.5625V13.4375ZM14.0625 25H10.9375C10.4198 25 10 24.5802 10 24.0625V20.9375C10 20.4198 10.4198 20 10.9375 20H14.0625C14.5802 20 15 20.4198 15 20.9375V24.0625C15 24.5802 14.5802 25 14.0625 25ZM20 37.5H15V30.9375C15 30.4198 15.4198 30 15.9375 30H19.0625C19.5802 30 20 30.4198 20 30.9375V37.5ZM25 24.0625C25 24.5802 24.5802 25 24.0625 25H20.9375C20.4198 25 20 24.5802 20 24.0625V20.9375C20 20.4198 20.4198 20 20.9375 20H24.0625C24.5802 20 25 20.4198 25 20.9375V24.0625ZM25 16.5625C25 17.0802 24.5802 17.5 24.0625 17.5H20.9375C20.4198 17.5 20 17.0802 20 16.5625V13.4375C20 12.9198 20.4198 12.5 20.9375 12.5H24.0625C24.5802 12.5 25 12.9198 25 13.4375V16.5625ZM25 9.0625C25 9.58023 24.5802 10 24.0625 10H20.9375C20.4198 10 20 9.58023 20 9.0625V5.9375C20 5.41977 20.4198 5 20.9375 5H24.0625C24.5802 5 25 5.41977 25 5.9375V9.0625Z" fill="#2F2D51"/>
</svg>
