<svg width="16" height="17" viewBox="0 0 16 17" fill="none" xmlns="http://www.w3.org/2000/svg">
<path d="M15.7824 14.4094L12.6666 11.1643C12.5259 11.0178 12.3353 10.9364 12.1353 10.9364H11.6259C12.4884 9.78746 13.001 8.34228 13.001 6.77017C13.001 3.0303 10.0914 0 6.50048 0C2.90959 0 0 3.0303 0 6.77017C0 10.51 2.90959 13.5403 6.50048 13.5403C8.00996 13.5403 9.39756 13.0065 10.5008 12.1082V12.6387C10.5008 12.8471 10.5789 13.0456 10.7195 13.1921L13.8354 16.4372C14.1292 16.7432 14.6042 16.7432 14.8948 16.4372L15.7793 15.5161C16.0731 15.2101 16.0731 14.7154 15.7824 14.4094ZM6.50048 10.9364C4.29094 10.9364 2.50018 9.07463 2.50018 6.77017C2.50018 4.46896 4.28781 2.60391 6.50048 2.60391C8.71001 2.60391 10.5008 4.46571 10.5008 6.77017C10.5008 9.07138 8.71314 10.9364 6.50048 10.9364Z" fill="black" fill-opacity="0.5"/>
</svg>
