<svg width="64" height="64" viewBox="0 0 64 64" fill="none" xmlns="http://www.w3.org/2000/svg">
<path d="M46.912 0C57.792 0 64 6.144 64 17.056V46.944C64 57.792 57.824 64 46.944 64H17.056C6.144 64 0 57.792 0 46.944V17.056C0 6.144 6.144 0 17.056 0H46.912ZM31.968 17.632C30.496 17.632 29.312 18.816 29.312 20.288V29.312H20.256C19.552 29.312 18.88 29.6 18.368 30.08C17.888 30.592 17.6 31.2608 17.6 31.968C17.6 33.44 18.784 34.624 20.256 34.656H29.312V43.712C29.312 45.184 30.496 46.368 31.968 46.368C33.44 46.368 34.624 45.184 34.624 43.712V34.656H43.712C45.184 34.624 46.368 33.44 46.368 31.968C46.368 30.496 45.184 29.312 43.712 29.312H34.624V20.288C34.624 18.816 33.44 17.632 31.968 17.632Z" fill="#2F2D51"/>
</svg>
